<?xml version="1.0" encoding="iso-8859-1"?>
<!-- Generator: Adobe Illustrator 19.0.0, SVG Export Plug-In . SVG Version: 6.00 Build 0)  -->
<svg version="1.1" id="Layer_1" xmlns="http://www.w3.org/2000/svg" xmlns:xlink="http://www.w3.org/1999/xlink" x="0px" y="0px"
	 viewBox="0 0 506.88 506.88" style="enable-background:new 0 0 506.88 506.88;" xml:space="preserve">
<g transform="translate(1 1)">
	<path style="fill:#FFDD09;" d="M492.227,284.013l-37.547-14.507l-22.187-89.6c-1.707-7.68-8.533-12.8-16.213-12.8h-57.173
		c-16.213,45.227-44.373,93.867-91.307,93.867h-34.133h-25.6H39.96L18.627,371.907h51.2c0-23.893,18.773-42.667,42.667-42.667
		s42.667,18.773,42.667,42.667h171.52h34.133c0-23.893,18.773-42.667,42.667-42.667c23.893,0,42.667,18.773,42.667,42.667h42.667
		c5.12,0,8.533-3.413,8.533-8.533v-70.827C497.347,289.133,495.64,285.72,492.227,284.013"/>
	<path style="fill:#FD9808;" d="M492.227,284.013l-37.547-14.507l-22.187-89.6c-1.707-7.68-8.533-12.8-16.213-12.8h-24.747
		c7.68,0,14.507,5.12,16.213,12.8l22.187,89.6l37.547,14.507c3.413,1.707,5.12,4.267,5.12,7.68v71.68
		c0,5.12-3.413,8.533-8.533,8.533h24.747c5.12,0,8.533-3.413,8.533-8.533v-70.827C497.347,289.133,495.64,285.72,492.227,284.013"/>
	<polygon style="fill:#FFFFFF;" points="39.96,260.973 19.48,371.907 45.08,371.907 65.56,260.973 	"/>
	<g>
		<path style="fill:#FFDD09;" d="M155.16,371.907c0-23.893-18.773-42.667-42.667-42.667s-42.667,18.773-42.667,42.667
			c0,23.893,18.773,42.667,42.667,42.667S155.16,395.8,155.16,371.907"/>
		<path style="fill:#FFDD09;" d="M446.147,371.907c0-23.893-18.773-42.667-42.667-42.667c-23.893,0-42.667,18.773-42.667,42.667
			c0,23.893,18.773,42.667,42.667,42.667C427.373,414.573,446.147,395.8,446.147,371.907"/>
	</g>
	<path style="fill:#FCC309;" d="M266.947,260.973H39.96L69.827,90.307H377.88C377.88,90.307,354.84,260.973,266.947,260.973"/>
	<polygon style="fill:#FFFFFF;" points="74.093,90.307 43.373,260.973 65.56,260.973 96.28,90.307 	"/>
	<path d="M112.493,423.107c-28.16,0-51.2-23.04-51.2-51.2s23.04-51.2,51.2-51.2s51.2,23.04,51.2,51.2
		S140.653,423.107,112.493,423.107z M112.493,337.773c-18.773,0-34.133,15.36-34.133,34.133s15.36,34.133,34.133,34.133
		s34.133-15.36,34.133-34.133S131.267,337.773,112.493,337.773z"/>
	<path d="M112.493,388.973c-9.387,0-17.067-7.68-17.067-17.067s7.68-17.067,17.067-17.067s17.067,7.68,17.067,17.067
		C129.56,381.293,121.88,388.973,112.493,388.973"/>
	<path d="M403.48,388.973c-9.387,0-17.067-7.68-17.067-17.067s7.68-17.067,17.067-17.067s17.067,7.68,17.067,17.067
		C420.547,381.293,412.867,388.973,403.48,388.973"/>
	<path d="M403.48,423.107c-28.16,0-51.2-23.04-51.2-51.2s23.04-51.2,51.2-51.2c28.16,0,51.2,23.04,51.2,51.2
		S431.64,423.107,403.48,423.107z M403.48,337.773c-18.773,0-34.133,15.36-34.133,34.133s15.36,34.133,34.133,34.133
		s34.133-15.36,34.133-34.133S422.253,337.773,403.48,337.773z"/>
	<path d="M454.68,278.04h-48.64c-15.36,0-28.16-12.8-28.16-28.16v-40.107c0-5.12,3.413-8.533,8.533-8.533s8.533,3.413,8.533,8.533
		v40.107c0,5.973,5.12,11.093,11.093,11.093h48.64c5.12,0,8.533,3.413,8.533,8.533C463.213,274.627,459.8,278.04,454.68,278.04z"/>
	<path d="M377.88,312.173h-17.067c-5.12,0-8.533-3.413-8.533-8.533c0-5.12,3.413-8.533,8.533-8.533h17.067
		c5.12,0,8.533,3.413,8.533,8.533C386.413,308.76,383,312.173,377.88,312.173z"/>
	<path d="M266.947,269.507H39.96c-2.56,0-5.12-0.853-6.827-3.413c-1.707-1.707-2.56-4.267-1.707-6.827L62.147,88.6
		c0-4.267,3.413-6.827,7.68-6.827H377.88c2.56,0,5.12,0.853,6.827,2.56c0.853,2.56,1.707,4.267,1.707,6.827
		C385.56,98.84,360.813,269.507,266.947,269.507z M50.2,252.44h216.747c68.267,0,94.72-118.613,100.693-153.6H77.507L50.2,252.44z"
		/>
	<path d="M166.253,132.973H26.307c-5.12,0-8.533-3.413-8.533-8.533s3.413-8.533,8.533-8.533h139.947c5.12,0,8.533,3.413,8.533,8.533
		S171.373,132.973,166.253,132.973z"/>
	<path d="M160.28,167.107H20.333c-5.12,0-8.533-3.413-8.533-8.533c0-5.12,3.413-8.533,8.533-8.533H160.28
		c5.12,0,8.533,3.413,8.533,8.533C168.813,163.693,165.4,167.107,160.28,167.107z"/>
	<path d="M154.307,201.24H14.36c-5.12,0-8.533-3.413-8.533-8.533c0-5.12,3.413-8.533,8.533-8.533h139.947
		c5.12,0,8.533,3.413,8.533,8.533C162.84,197.827,158.573,201.24,154.307,201.24z"/>
	<path d="M148.333,235.373H7.533c-5.12,0-8.533-3.413-8.533-8.533c0-5.12,3.413-8.533,8.533-8.533H147.48
		c5.12,0,8.533,3.413,8.533,8.533C156.013,231.96,152.6,235.373,148.333,235.373z"/>
	<path d="M488.813,380.44h-42.667c-5.12,0-8.533-3.413-8.533-8.533c0-18.773-15.36-34.133-34.133-34.133
		s-34.133,15.36-34.133,34.133c0,5.12-3.413,8.533-8.533,8.533H155.16c-5.12,0-8.533-3.413-8.533-8.533
		c0-18.773-15.36-34.133-34.133-34.133s-34.133,15.36-34.133,34.133c0,5.12-3.413,8.533-8.533,8.533h-51.2
		c-2.56,0-5.12-0.853-6.827-3.413s-1.707-4.267-0.853-6.827l20.48-110.933c0.853-4.267,4.267-6.827,8.533-6.827h226.987
		c42.667,0,69.12-47.787,83.627-87.893c0.853-3.413,4.267-5.973,7.68-5.973h57.173c11.947,0,22.187,7.68,24.747,19.627
		l21.333,85.333l33.28,13.653l0,0c6.827,2.56,11.093,8.533,11.093,16.213v69.973C505.88,372.76,498.2,380.44,488.813,380.44z
		 M453.827,363.373h34.987v-70.827l3.413-7.68l-3.413,7.68l-37.547-14.507c-2.56-0.853-4.267-3.413-5.12-5.973l-22.187-89.6
		c-0.853-3.413-4.267-6.827-8.533-6.827h-51.2c-23.04,61.44-57.173,93.867-97.28,93.867H46.787l-17.92,93.867h33.28
		c4.267-23.893,24.747-42.667,50.347-42.667s46.08,18.773,50.347,42.667h189.44c4.267-23.893,24.747-42.667,50.347-42.667
		S449.56,339.48,453.827,363.373z"/>
</g>
<g>
</g>
<g>
</g>
<g>
</g>
<g>
</g>
<g>
</g>
<g>
</g>
<g>
</g>
<g>
</g>
<g>
</g>
<g>
</g>
<g>
</g>
<g>
</g>
<g>
</g>
<g>
</g>
<g>
</g>
</svg>
